name D:\school\WTK\thesis\model\3dpredictsim\Results\Batchsim_tmt_linear_v2\Pog_s1_tmt_aCst_d05_k2000_ig24_act.mot
datacolumns 128
datarows 4
range 1.74098884 1.77580862
endheader
time	pelvis_tilt	pelvis_list	pelvis_rotation	pelvis_tx	pelvis_ty	pelvis_tz	hip_flexion_l	hip_adduction_l	hip_rotation_l	hip_flexion_r	hip_adduction_r	hip_rotation_r	knee_angle_l	knee_angle_r	ankle_angle_l	ankle_angle_r	subtalar_angle_l	subtalar_angle_r	tmt_angle_l	tmt_angle_r	mtp_angle_l	mtp_angle_r	lumbar_extension	lumbar_bending	lumbar_rotation	arm_flex_l	arm_add_l	arm_rot_l	arm_flex_r	arm_add_r	arm_rot_r	elbow_flex_l	elbow_flex_r	pro_sup_l	pro_sup_r	glut_med1_l/activation	glut_med2_l/activation	glut_med3_l/activation	glut_min1_l/activation	glut_min2_l/activation	glut_min3_l/activation	semimem_l/activation	semiten_l/activation	bifemlh_l/activation	bifemsh_l/activation	sar_l/activation	add_long_l/activation	add_brev_l/activation	add_mag1_l/activation	add_mag2_l/activation	add_mag3_l/activation	tfl_l/activation	pect_l/activation	grac_l/activation	glut_max1_l/activation	glut_max2_l/activation	glut_max3_l/activation	iliacus_l/activation	psoas_l/activation	quad_fem_l/activation	gem_l/activation	peri_l/activation	rect_fem_l/activation	vas_med_l/activation	vas_int_l/activation	vas_lat_l/activation	med_gas_l/activation	lat_gas_l/activation	soleus_l/activation	tib_post_l/activation	flex_dig_l/activation	flex_hal_l/activation	tib_ant_l/activation	per_brev_l/activation	per_long_l/activation	per_tert_l/activation	ext_dig_l/activation	ext_hal_l/activation	ercspn_l/activation	intobl_l/activation	extobl_l/activation	glut_med1_r/activation	glut_med2_r/activation	glut_med3_r/activation	glut_min1_r/activation	glut_min2_r/activation	glut_min3_r/activation	semimem_r/activation	semiten_r/activation	bifemlh_r/activation	bifemsh_r/activation	sar_r/activation	add_long_r/activation	add_brev_r/activation	add_mag1_r/activation	add_mag2_r/activation	add_mag3_r/activation	tfl_r/activation	pect_r/activation	grac_r/activation	glut_max1_r/activation	glut_max2_r/activation	glut_max3_r/activation	iliacus_r/activation	psoas_r/activation	quad_fem_r/activation	gem_r/activation	peri_r/activation	rect_fem_r/activation	vas_med_r/activation	vas_int_r/activation	vas_lat_r/activation	med_gas_r/activation	lat_gas_r/activation	soleus_r/activation	tib_post_r/activation	flex_dig_r/activation	flex_hal_r/activation	tib_ant_r/activation	per_brev_r/activation	per_long_r/activation	per_tert_r/activation	ext_dig_r/activation	ext_hal_r/activation	ercspn_r/activation	intobl_r/activation	extobl_r/activation	
          1.74098884	         -0.05874511	         -1.96970926	         -9.32885435	          2.17623605	          0.87779984	          0.00438412	         29.09338209	         -3.33405923	          0.30383124	        -17.73259002	          0.26528715	          6.67494439	        -15.46887391	        -15.88693078	        -28.45793025	        -22.44207901	          1.63791557	          5.76950717	         -0.01965813	          0.43637471	         -0.60215452	         39.37139689	          1.07046932	          5.41955652	          2.18094271	        -20.14789873	        -13.46173295	         15.83316649	          1.69171679	        -13.54095924	          9.16923626	         23.41532305	         31.94119688	         86.51662706	         86.51662706	          0.06615187	          0.08683924	          0.12092174	          0.05967204	          0.05008105	          0.05000397	          0.10414613	          0.07957904	          0.08499127	          0.09066957	          0.05967225	          0.08499131	          0.12105427	          0.17809261	          0.17695894	          0.13666799	          0.05000018	          0.05000499	          0.08508863	          0.07061033	          0.12988367	          0.16439530	          0.08758952	          0.08822027	          0.12556208	          0.05002496	          0.06807596	          0.05000006	          0.05000086	          0.05012824	          0.05202515	          0.05967220	          0.05967225	          0.05967210	          0.05967216	          0.05967232	          0.06814091	          0.05000009	          0.11564617	          0.09388365	          0.16050892	          0.05881212	          0.05602006	          0.05000001	          0.15554507	          0.12482050	          0.18573548	          0.05000015	          0.05000021	          0.18076278	          0.09953260	          0.05000024	          0.06213559	          0.05000022	          0.05000030	          0.05000019	          0.07593539	          0.29692411	          0.29414217	          0.21843556	          0.05000115	          0.05000032	          0.13126486	          0.16420535	          0.07121692	          0.05000086	          0.05000049	          0.05000040	          0.27649110	          0.41998575	          0.07305566	          0.06798626	          0.05967213	          0.17241776	          0.07304361	          0.08315144	          0.06371424	          0.05000010	          0.08315007	          0.14646732	          0.11954628	          0.09934770	          0.11349389	          0.13457390	          0.28424073	          0.20543838	          0.51367858	          0.49999040	          0.14398113	          0.05547708	          0.05000053	          0.06052616	
          1.75259543	         -0.02443572	         -2.10871613	         -9.29827729	          2.19571050	          0.87709740	          0.00401050	         28.75292455	         -3.20619456	          0.50666035	        -17.38497300	          0.18723783	          6.45072538	        -16.34817483	        -17.99372390	        -27.00096985	        -24.99436609	          1.66444494	          6.32644192	         -0.00984452	          0.33866079	         -0.19927270	         38.83980091	          1.35297460	          5.21431918	          2.27316885	        -21.86957349	        -13.44970721	         15.98465075	          1.49577283	        -13.59053380	          9.75125571	         23.87865573	         32.42340756	         86.51662706	         86.51662706	          0.13643174	          0.07406554	          0.13738820	          0.05000026	          0.05000018	          0.05000017	          0.08726526	          0.06668023	          0.07121518	          0.07597310	          0.05000014	          0.07121548	          0.10143284	          0.14922771	          0.15274416	          0.12181201	          0.05000003	          0.05000410	          0.07129686	          0.07120506	          0.13327658	          0.14393395	          0.07339230	          0.07392082	          0.16159928	          0.05000024	          0.06735198	          0.05000000	          0.08424064	          0.09073173	          0.09167361	          0.05000004	          0.05000008	          0.05000002	          0.05000001	          0.05000016	          0.05709608	          0.08340801	          0.09690129	          0.07866621	          0.35812001	          0.11659093	          0.13383315	          0.05000000	          0.13033303	          0.10458856	          0.15562995	          0.05000055	          0.05000207	          0.15146327	          0.08339955	          0.05431264	          0.09463447	          0.05000009	          0.05000017	          0.05000006	          0.06362723	          0.24879622	          0.31202821	          0.18302977	          0.05967281	          0.05001007	          0.10998837	          0.13758971	          0.05967363	          0.05000350	          0.05000425	          0.05390919	          0.23167513	          0.35191098	          0.06121425	          0.05696671	          0.05000016	          0.14447086	          0.06120411	          0.06967359	          0.05338692	          0.05000016	          0.06967247	          0.13710747	          0.10016923	          0.08324464	          0.09509787	          0.21516998	          0.30933078	          0.20220755	          0.67949584	          0.62518771	          0.12064351	          0.05413197	          0.05000000	          0.05818768	
          1.76420203	          0.01579657	         -2.23313588	         -9.22484066	          2.21513303	          0.87582185	          0.00361836	         28.28782103	         -3.01690365	          0.73137700	        -16.84214458	          0.13440631	          6.24202853	        -17.74201148	        -20.51375458	        -24.76431929	        -26.90378890	          1.73282952	          6.87385787	          0.07076016	          0.27532904	          1.06177236	         36.75048058	          1.62171063	          4.97116134	          2.35385925	        -23.49310715	        -13.45713326	         16.22792442	          1.29248393	        -13.65169992	         10.30371767	         24.18959752	         32.86958187	         86.51662706	         86.51662706	          0.11431781	          0.14179303	          0.25806026	          0.05000047	          0.05000100	          0.10211993	          0.07312058	          0.05587215	          0.05967204	          0.06365876	          0.05000020	          0.05967231	          0.08499178	          0.12503966	          0.12798614	          0.10206773	          0.08376484	          0.05000084	          0.05974050	          0.05967216	          0.12434594	          0.12060395	          0.06149630	          0.06193918	          0.13601616	          0.07328512	          0.21506802	          0.10143258	          0.29639441	          0.28037942	          0.26691669	          0.05000000	          0.05000000	          0.05000000	          0.22125052	          0.30686062	          0.36512384	          0.06988855	          0.14447137	          0.12622510	          0.30007294	          0.09769290	          0.11214037	          0.05000000	          0.10920757	          0.08763598	          0.13040416	          0.05000005	          0.05000002	          0.12691286	          0.06988149	          0.05000006	          0.14403231	          0.05000010	          0.05000027	          0.05000003	          0.05331412	          0.20849941	          0.31553464	          0.45434355	          0.05000157	          0.15752767	          0.09216055	          0.11528813	          0.05000131	          0.05000064	          0.05000038	          0.05000034	          0.19412330	          0.29487033	          0.05129216	          0.05000073	          0.05000014	          0.12105382	          0.05128379	          0.05982679	          0.05221306	          0.05290412	          0.05967663	          0.11488399	          0.08393297	          0.06975171	          0.07968363	          0.24310062	          0.31037799	          0.19248452	          0.60967176	          0.75852123	          0.31944545	          0.05427427	          0.07533327	          0.08869272	
          1.77580862	          0.05652098	         -2.33290677	         -9.10816411	          2.23429698	          0.87429885	          0.00319364	         27.55230173	         -2.77133319	          0.97800472	        -16.08260340	          0.09629400	          6.04572185	        -19.29100094	        -23.39076556	        -21.62513109	        -28.32109989	          1.89231320	          7.40068254	          0.18244774	          0.20357962	          3.08691261	         33.15419113	          1.86490396	          4.68865461	          2.42057182	        -24.95286455	        -13.46834663	         16.58062092	          1.11887397	        -13.70584492	         10.82711246	         24.28627947	         33.22429574	         86.51662706	         86.51662706	          0.16920239	          0.28624206	          0.45699212	          0.05000461	          0.09001899	          0.20538805	          0.06126860	          0.05000002	          0.05000006	          0.05334045	          0.07121541	          0.05000017	          0.07121562	          0.10477223	          0.10724116	          0.11820128	          0.07018755	          0.05000077	          0.05005730	          0.05000008	          0.17733928	          0.12624014	          0.05152849	          0.05189958	          0.11396972	          0.12122342	          0.29492961	          0.08499154	          0.24835244	          0.23493335	          0.24344026	          0.14447092	          0.18029004	          0.10143246	          0.27552797	          0.39247236	          0.31458097	          0.05856043	          0.12105425	          0.10576549	          0.25143463	          0.08185802	          0.09396373	          0.05000000	          0.09150630	          0.07343121	          0.12075757	          0.05000011	          0.05000005	          0.10634179	          0.05855456	          0.05000022	          0.19780876	          0.05310391	          0.11396176	          0.05000002	          0.05000011	          0.17470410	          0.41514110	          0.38069981	          0.14729916	          0.13199547	          0.07722242	          0.09660140	          0.05000035	          0.05000148	          0.05000742	          0.09613066	          0.16265818	          0.24707529	          0.05000014	          0.05000021	          0.05000006	          0.10143241	          0.07121520	          0.05012966	          0.06107420	          0.07048960	          0.05000399	          0.09626278	          0.07032842	          0.05844588	          0.06676787	          0.31026604	          0.29333072	          0.18253964	          0.51085123	          0.82478483	          0.26766710	          0.06162475	          0.06312263	          0.07431668	
